<svg xmlns="http://www.w3.org/2000/svg" viewBox="0 0 512 512">
  <defs>
    <linearGradient id="bg" x1="0%" y1="0%" x2="100%" y2="100%">
      <stop offset="0%" style="stop-color:#312e81"/>
      <stop offset="100%" style="stop-color:#581c87"/>
    </linearGradient>
    <linearGradient id="lotus" x1="0%" y1="0%" x2="0%" y2="100%">
      <stop offset="0%" style="stop-color:#c4b5fd"/>
      <stop offset="100%" style="stop-color:#a78bfa"/>
    </linearGradient>
  </defs>
  <!-- Background circle -->
  <circle cx="256" cy="256" r="256" fill="url(#bg)"/>
  <!-- Om symbol simplified as lotus/awareness shape -->
  <g transform="translate(256, 256)">
    <!-- Center dot - awareness -->
    <circle cx="0" cy="-20" r="24" fill="url(#lotus)"/>
    <!-- Lotus petals - radiating awareness -->
    <path d="M0,-80 Q30,-60 0,-40 Q-30,-60 0,-80" fill="url(#lotus)" opacity="0.9"/>
    <path d="M60,-40 Q50,-10 20,-20 Q40,-50 60,-40" fill="url(#lotus)" opacity="0.8"/>
    <path d="M-60,-40 Q-50,-10 -20,-20 Q-40,-50 -60,-40" fill="url(#lotus)" opacity="0.8"/>
    <path d="M70,30 Q40,20 30,50 Q60,40 70,30" fill="url(#lotus)" opacity="0.7"/>
    <path d="M-70,30 Q-40,20 -30,50 Q-60,40 -70,30" fill="url(#lotus)" opacity="0.7"/>
    <!-- Base arc - grounding -->
    <path d="M-60,60 Q0,100 60,60" stroke="url(#lotus)" stroke-width="8" fill="none" opacity="0.6"/>
  </g>
</svg>








